<svg width="27" height="27" viewBox="0 0 27 27" fill="none" xmlns="http://www.w3.org/2000/svg">
<path fill-rule="evenodd" clip-rule="evenodd" d="M25.1404 20.3417C26.3221 18.3355 27 15.9969 27 13.5C27 6.04416 20.9558 0 13.5 0C6.04416 0 0 6.04416 0 13.5C0 20.9558 6.04416 27 13.5 27C15.8878 27 18.1309 26.3801 20.077 25.2923L25.8181 26.7276C26.0785 26.7927 26.3539 26.7137 26.5401 26.5204C26.7263 26.3271 26.7951 26.049 26.7203 25.7912L25.1404 20.3417ZM13.5 25C15.6547 25 17.671 24.4074 19.3948 23.3763L21.9201 24.053C21.8709 24.0923 21.8215 24.1312 21.7717 24.1698L24.9164 24.956L23.3313 19.4885L23.3964 19.4696L23.3763 19.3948C24.4074 17.671 25 15.6547 25 13.5C25 7.14873 19.8513 2 13.5 2C7.14873 2 2 7.14873 2 13.5C2 19.8513 7.14873 25 13.5 25Z" fill="#262626"/>
</svg>
