<svg width="23" height="20" viewBox="0 0 23 20" fill="none" xmlns="http://www.w3.org/2000/svg">
<path d="M11.6054 4.53421L10.9238 4.84715C11.0492 5.12029 11.3255 5.29219 11.626 5.28393C11.9264 5.27566 12.1929 5.08883 12.3031 4.80921L11.6054 4.53421ZM6.58927 1.45789L6.76484 0.728733C6.64792 0.700581 6.52595 0.700957 6.40921 0.729828L6.58927 1.45789ZM1.13379 7.61052L0.394417 7.48471C0.37953 7.5722 0.380288 7.66164 0.396658 7.74886L1.13379 7.61052ZM11.4236 19.0368L10.91 19.5834C11.1924 19.8488 11.6307 19.8553 11.9208 19.5983L11.4236 19.0368ZM21.5315 7.17105L22.2583 7.35593C22.2829 7.25914 22.288 7.1584 22.2731 7.05964L21.5315 7.17105ZM16.2578 1.45789L16.3663 0.715793C16.3077 0.707212 16.2482 0.705615 16.1892 0.711037L16.2578 1.45789ZM12.2869 4.22127C11.6461 2.82544 10.9691 2.05211 9.99091 1.58884C9.53258 1.37177 9.03768 1.23714 8.52095 1.11835C7.96365 0.990243 7.45955 0.896008 6.76484 0.728733L6.4137 2.18705C7.07931 2.34732 7.73316 2.47638 8.1849 2.58023C8.67722 2.6934 9.04246 2.79937 9.34886 2.94449C9.90013 3.20557 10.3708 3.64286 10.9238 4.84715L12.2869 4.22127ZM6.40921 0.729828C4.38051 1.23154 2.98591 1.83777 2.04439 2.95144C1.11713 4.04826 0.727373 5.52799 0.394417 7.48471L1.87316 7.73634C2.20636 5.77817 2.55208 4.67429 3.18989 3.91986C3.81344 3.1823 4.8135 2.66965 6.76933 2.18596L6.40921 0.729828ZM0.396658 7.74886C0.758909 9.6791 2.12593 11.3984 3.94783 13.2032C4.87005 14.1167 5.9409 15.0815 7.10925 16.1273C8.28167 17.1768 9.55782 18.3128 10.91 19.5834L11.9372 18.4903C10.569 17.2046 9.27784 16.0554 8.1097 15.0097C6.93749 13.9604 5.89454 13.0202 5.00346 12.1375C3.19875 10.3498 2.14119 8.91232 1.87092 7.47218L0.396658 7.74886ZM11.9208 19.5983C14.717 17.1215 17.0324 15.1022 18.7653 13.2114C20.5072 11.3108 21.7177 9.48145 22.2583 7.35593L20.8046 6.98617C20.3494 8.77576 19.317 10.3894 17.6595 12.1979C15.9929 14.0163 13.7522 15.9723 10.9263 18.4754L11.9208 19.5983ZM22.2731 7.05964C21.9576 4.95924 21.4696 3.45647 20.4884 2.43177C19.4955 1.3949 18.1182 0.972088 16.3663 0.715793L16.1492 2.19999C17.8245 2.44509 18.7733 2.80953 19.405 3.46921C20.0484 4.14108 20.4836 5.24419 20.7898 7.28247L22.2731 7.05964ZM16.1892 0.711037C14.9511 0.824748 13.8706 0.89958 12.9995 1.386C12.0679 1.90629 11.4751 2.81916 10.9076 4.25921L12.3031 4.80921C12.8339 3.46236 13.2631 2.95687 13.7309 2.69562C14.2594 2.40051 14.9558 2.33063 16.3264 2.20475L16.1892 0.711037Z" fill="#262626"/>
</svg>
